<svg xmlns="http://www.w3.org/2000/svg" viewBox="0 0 184 184" fill="none">
    <path d="M105.587 69.5278C106.873 67.2999 109.75 66.5114 111.76 68.1161C115.844 71.3754 119.06 75.6297 121.078 80.5031C123.694 86.8186 124.153 93.8209 122.384 100.424C120.615 107.027 116.716 112.861 111.293 117.023C105.87 121.184 99.225 123.44 92.3891 123.44C85.5532 123.44 78.9084 121.184 73.4851 117.023C68.0619 112.861 64.1633 107.027 62.394 100.424C60.6248 93.8209 61.0837 86.8186 63.6997 80.5031C65.7183 75.6297 68.9343 71.3754 73.0179 68.1161C75.0285 66.5114 77.9052 67.2999 79.1915 69.5278C80.4778 71.7556 79.6692 74.5729 77.7659 76.3035C75.4103 78.4453 73.5394 81.0918 72.3065 84.0682C70.4754 88.4891 70.1541 93.3906 71.3926 98.0127C72.631 102.635 75.36 106.719 79.1563 109.632C82.9526 112.545 87.604 114.124 92.3891 114.124C97.1742 114.124 101.826 112.545 105.622 109.632C109.418 106.719 112.147 102.635 113.386 98.0127C114.624 93.3906 114.303 88.489 112.472 84.0682C111.239 81.0918 109.368 78.4453 107.012 76.3035C105.109 74.5729 104.3 71.7556 105.587 69.5278Z"/>
    <rect x="88.1562" y="62.7449" width="8.46904" height="32.4647" rx="4.23452"/>
</svg>
